<?xml version="1.0" encoding="iso-8859-1"?>
<!-- Generator: Adobe Illustrator 19.0.0, SVG Export Plug-In . SVG Version: 6.00 Build 0)  -->
<svg version="1.1" id="Layer_1" xmlns="http://www.w3.org/2000/svg" xmlns:xlink="http://www.w3.org/1999/xlink" x="0px" y="0px"
	 viewBox="0 0 511.988 511.988" style="enable-background:new 0 0 511.988 511.988;" xml:space="preserve">
<g>
	<g>
		<path d="M393.127,156.977h-48.839h-0.237h-9.521c-3.441,0-6.564,0.548-9.285,2.053v-27.896h-37.788
			c-14.696,21.763-39.243,38.549-67.479,41.667c-3.353,0.37-6.711,0.39-10.055,0.39c-22.389,0-44.232-7.952-61.148-22.952
			c-6.198-5.497-11.31-12.304-15.174-19.105H69.53v361.914c0,10.756,8.515,18.941,19.271,18.941h216.701
			c10.756,0,19.745-8.184,19.745-18.941v-49.911c2.72,1.504,5.845,2.202,9.285,2.202h9.521h0.237h48.839
			c35.94,0,65.417-29.078,65.417-65.019V221.846C458.546,185.906,429.069,156.977,393.127,156.977z M417.74,380.32
			c0,13.44-11.171,24.213-24.611,24.213H344.29h-0.237h-9.521c-3.441,0-6.564,1.023-9.285,2.526V195.106
			c2.72,1.504,5.845,2.677,9.285,2.677h9.521h0.237h48.839c13.44,0,24.611,10.623,24.611,24.063V380.32z"/>
	</g>
</g>
<g>
	<g>
		<path d="M285.144,35.215c-13.885,0-27.186,5.056-37.453,14.384c-2.368,2.152-5.657,2.927-8.757,2.138
			c-3.099-0.79-5.594-3.105-6.643-6.126C222.832,18.335,197.078,0,168.208,0c-30.376,0-57.251,20.425-65.353,49.678
			c-1.266,4.569-5.694,7.511-10.404,6.898c-1.578-0.205-3.054-0.306-4.509-0.306c-19.024,0-34.5,15.803-34.5,34.826
			c0,6.577,1.855,12.512,5.31,18.45c0.494,0.849,1.02,1.696,1.578,2.546h66.424c-0.846-4.082-1.364-8.606-1.485-12.844
			c-0.011-0.378,0.007-0.749,0.038-1.118c0.416-4.767,4.325-8.697,9.206-8.837c5.267-0.165,9.64,3.905,9.791,9.162
			c0.412,14.369,6.649,27.891,17.11,37.167c7.711,6.839,16.713,11.889,26.344,14.949c9.632,3.059,19.896,4.125,30.132,2.995
			c32.52-3.591,58.875-28.651,64.091-60.926c0.839-5.192,5.733-8.728,10.918-7.885c4.543,0.734,7.813,4.819,7.995,9.308
			c0.011,0.272,0.005,0.545-0.007,0.82c-0.016,0.371-0.048,0.743-0.107,1.115c-0.879,5.435-2.246,10.652-4.03,16.092h40.142
			c2.636-6.801,3.968-13.811,3.968-20.997C340.859,60.372,315.866,35.215,285.144,35.215z"/>
	</g>
</g>
<g>
</g>
<g>
</g>
<g>
</g>
<g>
</g>
<g>
</g>
<g>
</g>
<g>
</g>
<g>
</g>
<g>
</g>
<g>
</g>
<g>
</g>
<g>
</g>
<g>
</g>
<g>
</g>
<g>
</g>
</svg>
