<?xml version="1.0" encoding="iso-8859-1"?>
<!-- Generator: Adobe Illustrator 19.0.0, SVG Export Plug-In . SVG Version: 6.00 Build 0)  -->
<svg version="1.1" id="Layer_1" xmlns="http://www.w3.org/2000/svg" xmlns:xlink="http://www.w3.org/1999/xlink" x="0px" y="0px"
	 viewBox="0 0 512 512" style="enable-background:new 0 0 512 512;" xml:space="preserve">
<path style="fill:#1D1D1B;" d="M395.874,376.638v-15.671c55.391,0,100.455-45.064,100.455-100.454v-54.145
	c0-55.391-45.063-100.455-100.455-100.455h-18.048V90.242h18.048C459.907,90.242,512,142.336,512,206.368v54.145
	C512,324.544,459.907,376.638,395.874,376.638z"/>
<polygon style="fill:#FBB049;" points="350.754,468.068 25.884,468.068 61.98,16.86 314.657,16.86 "/>
<polyline style="fill:#FA9C1C;" points="314.657,16.86 350.754,468.068 25.884,468.068 "/>
<rect id="SVGCleanerId_0" x="25.884" y="71.005" style="fill:#7B7B53;" width="324.873" height="63.174"/>
<rect id="SVGCleanerId_1" x="7.835" y="341.735" style="fill:#7B7B53;" width="360.968" height="63.174"/>
<g>
	<rect id="SVGCleanerId_0_1_" x="25.884" y="71.005" style="fill:#7B7B53;" width="324.873" height="63.174"/>
</g>
<g>
	<rect id="SVGCleanerId_1_1_" x="7.835" y="341.735" style="fill:#7B7B53;" width="360.968" height="63.174"/>
</g>
<g>
	<rect x="197.345" y="341.735" style="fill:#5A5A28;" width="171.458" height="63.174"/>
	<rect x="179.293" y="71.005" style="fill:#5A5A28;" width="171.458" height="63.174"/>
</g>
<g>
	<rect x="7.835" y="487.305" style="fill:#1D1D1B;" width="360.968" height="15.671"/>
	<rect x="80.025" y="261.7" style="fill:#1D1D1B;" width="27.073" height="15.671"/>
	<rect x="143.198" y="288.779" style="fill:#1D1D1B;" width="108.294" height="15.671"/>
	<rect x="251.493" y="306.821" style="fill:#1D1D1B;" width="27.073" height="15.671"/>
	<rect x="278.561" y="243.658" style="fill:#1D1D1B;" width="27.073" height="15.671"/>
	<rect x="71.005" y="198.537" style="fill:#1D1D1B;" width="108.294" height="15.671"/>
	<rect x="188.319" y="225.605" style="fill:#1D1D1B;" width="36.097" height="15.671"/>
	<rect x="179.293" y="171.458" style="fill:#1D1D1B;" width="27.073" height="15.671"/>
	<rect x="251.493" y="180.484" style="fill:#1D1D1B;" width="27.073" height="15.671"/>
	<rect x="143.198" y="36.097" style="fill:#1D1D1B;" width="18.048" height="15.671"/>
	<rect x="89.051" y="433.157" style="fill:#1D1D1B;" width="27.073" height="15.671"/>
	<rect x="152.224" y="424.142" style="fill:#1D1D1B;" width="90.242" height="15.671"/>
	<path style="fill:#1D1D1B;" d="M376.637,333.895h-29.861l-14.832-191.886h26.644V63.17H325.25l-3.208-54.145H54.595L51.387,63.17
		H18.048v78.84h26.644L29.861,333.895H0v78.84h22.936l-5.615,63.169h341.996l-5.614-63.169h22.936V333.895z M67.761,51.768h30.316
		V36.097H68.69l0.676-11.402h237.907l0.676,11.402h-47.436v15.671h48.365l0.676,11.402H67.085L67.761,51.768z M33.719,78.84h309.199
		v47.499H33.719V78.84z M47.854,304.444h32.174v-15.671H49.065l9.252-119.692h21.711v-15.671H59.529l0.882-11.402h255.819
		l1.579,20.426h-39.247v15.671h40.457l12.041,155.789H45.577L47.854,304.444z M339.784,433.161h-25.127v15.671h26.52l1.013,11.402
		H34.446l1.816-20.426H61.98v-15.671H37.654l1.013-11.402h299.301L339.784,433.161z M360.967,397.064H15.671v-47.499h345.296
		V397.064z"/>
</g>
<g>
	<rect x="369.994" y="80.025" style="fill:#7B7B53;" width="15.671" height="36.097"/>
	<rect x="388.036" y="350.751" style="fill:#7B7B53;" width="15.671" height="36.097"/>
</g>
<g>
</g>
<g>
</g>
<g>
</g>
<g>
</g>
<g>
</g>
<g>
</g>
<g>
</g>
<g>
</g>
<g>
</g>
<g>
</g>
<g>
</g>
<g>
</g>
<g>
</g>
<g>
</g>
<g>
</g>
</svg>
